<?xml version="1.0" encoding="iso-8859-1"?>
<!-- Uploaded to: SVG Repo, www.svgrepo.com, Generator: SVG Repo Mixer Tools -->
<!DOCTYPE svg PUBLIC "-//W3C//DTD SVG 1.1//EN" "http://www.w3.org/Graphics/SVG/1.1/DTD/svg11.dtd">
<svg fill="#ffffff" version="1.1" id="Capa_1" xmlns="http://www.w3.org/2000/svg" xmlns:xlink="http://www.w3.org/1999/xlink"
	 width="800px" height="800px" viewBox="0 0 950 950" xml:space="preserve">
<g>
	<g>
		<path d="M319.719,343.498l-28.987-28.988c-3.537-3.537-9.272-3.537-12.811,0l-38.946,38.946L200.03,314.51
			c-3.537-3.537-9.272-3.537-12.81,0l-28.988,28.988c-3.538,3.537-3.538,9.272,0,12.81l38.946,38.946L158.231,434.2
			c-3.538,3.537-3.538,9.272,0,12.811l28.988,28.987c3.537,3.537,9.272,3.537,12.81,0l38.946-38.946l38.946,38.946
			c3.537,3.537,9.272,3.537,12.811,0l28.987-28.988c3.538-3.536,3.538-9.271,0-12.81l-38.945-38.946l38.945-38.946
			C323.256,352.771,323.256,347.036,319.719,343.498z"/>
		<path d="M522.153,222.816l-28.988-28.988c-3.537-3.537-9.271-3.537-12.809,0l-38.947,38.946l-38.946-38.946
			c-3.537-3.537-9.271-3.537-12.81,0l-28.988,28.988c-3.537,3.537-3.537,9.272,0,12.81l38.946,38.946l-38.946,38.946
			c-3.537,3.537-3.537,9.272,0,12.81l28.988,28.988c3.537,3.537,9.271,3.537,12.81,0l38.946-38.946l38.947,38.946
			c3.537,3.537,9.271,3.537,12.809,0l28.988-28.988c3.539-3.537,3.539-9.272,0-12.81l-38.945-38.946l38.945-38.946
			C525.692,232.088,525.692,226.354,522.153,222.816z"/>
		<path d="M723.038,471.695l-28.988-28.988c-3.537-3.537-9.271-3.537-12.811,0l-38.945,38.946l-38.947-38.946
			c-3.535-3.537-9.271-3.537-12.809,0l-28.988,28.988c-3.539,3.537-3.539,9.272,0,12.81l38.945,38.946l-38.945,38.946
			c-3.539,3.537-3.539,9.271,0,12.81l28.988,28.988c3.537,3.537,9.271,3.537,12.809,0l38.947-38.946l38.945,38.946
			c3.537,3.537,9.271,3.537,12.811,0l28.988-28.988c3.537-3.537,3.537-9.271,0-12.81l-38.947-38.946l38.947-38.946
			C726.575,480.968,726.575,475.233,723.038,471.695z"/>
		<circle cx="571.78" cy="861.843" r="86.488"/>
		<circle cx="322.372" cy="863.512" r="86.488"/>
		<circle cx="155.579" cy="678.686" r="86.488"/>
		<circle cx="645.386" cy="86.488" r="86.488"/>
		<path d="M501.565,471.218c29.572-42.291,65.043-81.946,105.537-118.054l12.377,15.426c3.457,4.308,7.881,3.627,9.885-1.52
			l25.281-64.993c2.002-5.147-0.801-8.64-6.26-7.801l-68.93,10.593c-5.459,0.839-7.082,5.011-3.625,9.319l12.469,15.541
			c-42.975,38.162-80.582,80.2-111.887,125.111c-26.927,38.631-49.286,79.459-66.454,121.354
			c-29.414,71.781-33.416,121.641-33.571,123.729c-0.616,8.253,5.567,15.435,13.818,16.062c0.388,0.029,0.772,0.044,1.154,0.044
			c7.759,0,14.331-5.986,14.941-13.85c1.274-16.399,9.591-61.727,31.943-115.892C454.627,546.593,475.931,507.877,501.565,471.218z"
			/>
		<path d="M861.019,673.199c0.805,0.129,1.604,0.191,2.393,0.191c7.238,0,13.609-5.252,14.793-12.627
			c0.332-2.066,7.979-51.498-4.021-128.14c-7.004-44.73-19.305-89.627-36.559-133.44c-20.059-50.938-46.914-100.538-79.889-147.612
			l15.729-12.233c4.359-3.391,3.746-7.825-1.371-9.905l-64.605-26.26c-5.117-2.08-8.652,0.67-7.896,6.14l9.553,69.08
			c0.756,5.471,4.902,7.157,9.262,3.766l15.613-12.142c31.035,44.5,56.363,91.29,75.344,139.277
			c16.453,41.598,28.217,84.192,34.965,126.604c9.207,57.867,6.807,103.888,4.25,120.138
			C847.28,664.207,852.845,671.889,861.019,673.199z"/>
	</g>
</g>
</svg>
