<?xml version="1.0" encoding="iso-8859-1"?>
<!-- Uploaded to: SVG Repo, www.svgrepo.com, Generator: SVG Repo Mixer Tools -->
<svg version="1.1" id="Layer_1" xmlns="http://www.w3.org/2000/svg" xmlns:xlink="http://www.w3.org/1999/xlink" 
	 viewBox="0 0 512 512" xml:space="preserve">
<circle style="fill:#EEBF00;" cx="255.999" cy="35.85" r="35.85"/>
<path style="opacity:0.31;fill:#664400;enable-background:new    ;" d="M269.357,2.582c4.862,6.119,7.774,13.856,7.774,22.278
	c0,19.8-16.051,35.85-35.85,35.85c-4.723,0-9.227-0.923-13.357-2.582C234.491,66.394,244.623,71.7,256,71.7
	c19.8,0,35.85-16.051,35.85-35.85C291.85,20.774,282.538,7.88,269.357,2.582z"/>
<path style="fill:#EEBF00;" d="M366.576,105.938c0-18.882-15.45-34.332-34.332-34.332H179.756c-18.882,0-34.332,15.45-34.332,34.332
	v70.26h41.314l31.347,194.963h75.83l31.347-194.963h41.314V105.938z"/>
<g style="opacity:0.31;">
	<path style="fill:#664400;" d="M332.244,71.606h-12.206v58.055h-41.314l-31.347,194.963h-36.774l7.483,46.539h75.83l31.347-194.963
		h41.314v-70.26C366.576,87.055,351.126,71.606,332.244,71.606z"/>
</g>
<g>
	<polygon style="fill:#664400;" points="337.986,425.956 174.014,425.956 153.116,371.162 358.884,371.162 	"/>
	<polygon style="fill:#664400;" points="355.609,512 156.391,512 131.001,425.956 380.999,425.956 	"/>
</g>
<polygon style="fill:#56361D;" points="355.121,425.957 335.834,491.317 150.288,491.317 156.391,512 355.609,512 380.999,425.957 
	"/>
<path style="fill:#FFEB99;" d="M235.664,243.578c-3.687,0-6.973-2.614-7.689-6.37l-18.27-95.764
	c-0.811-4.252,1.978-8.356,6.229-9.167c4.254-0.811,8.355,1.978,9.167,6.229l18.27,95.764c0.811,4.252-1.978,8.356-6.229,9.167
	C236.645,243.532,236.151,243.578,235.664,243.578z"/>
<g style="opacity:0.24;">
	<path style="fill:#664400;" d="M270.334,338.712c-0.364,0-0.73-0.025-1.1-0.077c-4.287-0.602-7.272-4.565-6.671-8.85
		l15.752-112.145c0.602-4.286,4.57-7.27,8.85-6.671c4.287,0.602,7.272,4.565,6.671,8.85l-15.752,112.145
		C277.534,335.88,274.178,338.712,270.334,338.712z"/>
</g>
<g>
	<rect x="184.643" y="453.099" style="fill:#D7D5D9;" width="140.497" height="28.348"/>
</g>
<polygon style="fill:#56361D;" points="163.565,398.56 174.014,425.957 337.986,425.957 348.435,398.56 "/>
</svg>