<svg width="256" height="256" xmlns="http://www.w3.org/2000/svg" xml:space="preserve" baseProfile="tiny" version="1.2" fill="#ffffff">

 <g>
  <title>Layer 1</title>
  <g id="svg_1">
   <path id="svg_2" d="m223.8,99.9c-0.4,-0.2 -1.5,-0.2 -1.9,-0.4c-0.4,-0.2 -1.9,-0.2 -2.6,-0.2c-4.3,0 -7.4,1.7 -9.1,4.7l-22.8,37.6l-28.7,0.5c-4.7,0 -8.7,3.8 -8.7,8.7c0,1.3 0.3,2.5 0.8,3.6l-46,0c0.5,-1.1 0.8,-2.3 0.8,-3.6c0,-4.9 -4,-8.7 -8.7,-8.7l-28.7,0l-22.8,-38.1c-1.7,-3 -4.9,-4.7 -9.1,-4.7c-0.6,0 -2.1,0 -2.6,0.2c-0.4,0.2 -1.5,0.2 -1.9,0.4c-29.2,6.7 -29.3,69 -29.1,80.9c0,10.9 3.8,15.7 11.7,18.7c1.9,0.9 4.3,1.3 6.2,1.3l50.2,0l0,43.4c0,6.4 4.9,11.3 11.3,11.3c6.4,0 11.3,-4.9 11.3,-11.3l0,-54.3c0,-3 -1.3,-6.2 -3.4,-8.1c-2.3,-2.3 -5.3,-3.6 -8.1,-3.6l-33.5,0l0,-25.1l-17.4,-29.6c-0.9,-1.3 -0.4,-2.8 0.6,-3.4c1.3,-0.9 2.8,-0.4 3.4,0.6l20.2,34.3c0.1,0.2 0.3,0.4 0.4,0.7l0,15.7l144.4,0l0,-15.7c0.2,-0.2 0.3,-0.4 0.4,-0.7l20.2,-34.3c0.6,-1.1 2.1,-1.5 3.4,-0.6c1.1,0.6 1.5,2.1 0.6,3.4l-17.4,29.6l0,25.1l-33.4,0c-2.8,0 -5.7,1.3 -8.1,3.6c-2.1,1.9 -3.4,5.1 -3.4,8.1l0,54.3c0,6.4 4.9,11.3 11.3,11.3c6.4,0 11.3,-4.9 11.3,-11.3l0,-43.4l50.2,0c1.9,0 4.3,-0.4 6.2,-1.3c7.9,-3 11.7,-7.8 11.7,-18.7c0.2,-11.8 0.1,-74.2 -29.2,-80.9z"/>
   <ellipse id="svg_3" ry="20.2" rx="20.2" cy="78.4" cx="202.1" transform="matrix(0.1222 -0.9925 0.9925 0.1222 99.5814 269.4569)"/>
   <ellipse id="svg_4" ry="20.2" rx="20.2" cy="78.4" cx="53.5" transform="matrix(0.4719 -0.8817 0.8817 0.4719 -40.881 88.6184)"/>
   <path id="svg_5" d="m128,75.4c20.6,0 37.4,-16.8 37.4,-37.4s-16.8,-37.3 -37.4,-37.3c-20.6,0 -37.4,16.8 -37.4,37.4c0,20.6 16.8,37.3 37.4,37.3zm-3.4,-55.5l0,-4.9l6.5,0l0,5.1c4.1,0.8 7,2.7 9.2,4.3l-4.5,5.2c-1.4,-1.1 -4,-2.6 -6.4,-3.1c-3.1,-0.7 -6.5,0.1 -6.7,3.2c-0.1,1.3 0.5,3.7 7.3,5.6c3.6,1 12,3.2 12,11.1c0,5.3 -4.6,9.5 -10.8,10.2l0,4.5l-6.5,0l0,-4.8c-3.4,-0.7 -6.6,-2.2 -9.6,-4.6l4.9,-4.9c0,0 3.6,2.8 7,3.3c3.9,0.5 6.2,-1.1 6.5,-3.3c0.5,-4.1 -8.5,-5.6 -11.7,-7.2c-3.9,-1.9 -7.7,-4.4 -7.7,-9.7c-0.1,-5.5 4.2,-9.5 10.5,-10z"/>
  </g>
  <path id="svg_9" d="m126.5,77.5c-21.27072,0 -38.5,-17.22928 -38.5,-38.5c0,-21.27072 17.22928,-38.5 38.5,-38.5c21.27072,0 38.5,17.22928 38.5,38.5c0,21.27072 -17.22928,38.5 -38.5,38.5z" opacity="undefined" stroke="#fff" fill="#fff"/>
  <path id="svg_10" d="m113.22013,24.77163l-17.6107,14.50135l17.61234,14.49865l6.40601,-5.27298l-11.20944,-9.22567l11.20711,-9.22568l-6.40531,-5.27567l0,0zm25.77462,0l-6.40137,5.27433l11.20715,9.22567l-11.20715,9.22454l6.40137,5.27295l17.61468,-14.49998l-17.61468,-14.49752z" stroke="#000" fill="#fff"/>
 </g>
</svg>
